<svg xmlns="http://www.w3.org/2000/svg" width="820" height="380" viewBox="0 0 820 380" font-family="monospace" font-size="11"><rect width="820" height="380" fill="#ffffff"/><text x="60.0" y="26" font-size="14">cold-start-3 — 100 trials</text><text x="60.0" y="42" fill="#666">p50 181.308333ms   p95 251.237084ms   max 281.121042ms</text><line x1="60.0" y1="320.0" x2="800.0" y2="320.0" stroke="#333"/><line x1="60.0" y1="50.0" x2="60.0" y2="320.0" stroke="#333"/><text x="54.0" y="60.0" text-anchor="end" fill="#666">20</text><rect x="60.00" y="50.00" width="55.92" height="270.00" fill="#4a6fa5"/><text x="88.46" y="336.0" text-anchor="middle" fill="#666">160</text><rect x="116.92" y="50.00" width="55.92" height="270.00" fill="#4a6fa5"/><rect x="173.85" y="131.00" width="55.92" height="189.00" fill="#4a6fa5"/><rect x="230.77" y="144.50" width="55.92" height="175.50" fill="#4a6fa5"/><rect x="287.69" y="185.00" width="55.92" height="135.00" fill="#4a6fa5"/><rect x="344.62" y="225.50" width="55.92" height="94.50" fill="#4a6fa5"/><text x="373.08" y="336.0" text-anchor="middle" fill="#666">210</text><rect x="401.54" y="266.00" width="55.92" height="54.00" fill="#4a6fa5"/><rect x="458.46" y="306.50" width="55.92" height="13.50" fill="#4a6fa5"/><rect x="515.38" y="279.50" width="55.92" height="40.50" fill="#4a6fa5"/><rect x="572.31" y="279.50" width="55.92" height="40.50" fill="#4a6fa5"/><rect x="629.23" y="266.00" width="55.92" height="54.00" fill="#4a6fa5"/><text x="657.69" y="336.0" text-anchor="middle" fill="#666">260</text><rect x="686.15" y="320.00" width="55.92" height="0.00" fill="#4a6fa5"/><rect x="743.08" y="306.50" width="55.92" height="13.50" fill="#4a6fa5"/><text x="430.0" y="366.0" text-anchor="middle" fill="#666">milliseconds</text></svg>